<svg width="24" height="24" viewBox="0 0 24 24" fill="none" xmlns="http://www.w3.org/2000/svg">
<path d="M12 8C12 8 12 8 12.76 7C13.64 5.84 14.94 5 16.5 5C18.99 5 21 7.01 21 9.5C21 10.43 20.72 11.29 20.24 12C19.43 13.21 12 21 12 21C12 21 4.57 13.21 3.76 12C3.28 11.29 3 10.43 3 9.5C3 7.01 5.01 5 7.5 5C9.06 5 10.37 5.84 11.24 7C12 8 12 8 12 8Z" fill="url(#paint0_linear_594_7300)"/>
<defs>
<linearGradient id="paint0_linear_594_7300" x1="21" y1="19.4444" x2="3.00037" y2="19.3628" gradientUnits="userSpaceOnUse">
<stop stop-color="#48BDFF"/>
<stop offset="0.479167" stop-color="#786CFF"/>
<stop offset="1" stop-color="#BD00FF"/>
</linearGradient>
</defs>
</svg>
