<svg width="96" height="96" viewBox="0 0 96 96" fill="none" xmlns="http://www.w3.org/2000/svg">
<path d="M96 48C96 21.4903 74.5097 0 48 0C21.4903 0 0 21.4903 0 48C0 74.5097 21.4903 96 48 96C74.5097 96 96 74.5097 96 48Z" fill="#00A9DE"/>
<path d="M28.542 31L36.4424 56.8311L41.8203 43.501C42.5179 41.7564 44.2081 40.6172 46.0918 40.6172H49.918C51.7922 40.6174 53.4817 41.7535 54.1885 43.501L59.5645 56.8281L62.5225 47.1562H72.5654L66.2812 67.7314C65.6912 69.6757 63.8992 71 61.8711 71H58.3525C56.8715 70.9999 55.5038 70.2807 54.6465 69.1289C54.4316 68.8742 54.2506 68.5734 54.1094 68.2236L47.9941 53.0625L41.916 68.1162C41.2184 69.8606 39.528 70.9999 37.6445 71H34.126C32.0978 71 30.3089 69.6695 29.7158 67.7314L18.5 31H28.542ZM77.5 31L74.5566 40.6133H64.5137L67.4512 31H77.5Z" fill="black"/>
</svg>
