<svg width="96" height="96" viewBox="0 0 96 96" fill="none" xmlns="http://www.w3.org/2000/svg">
<path d="M48 96C74.5097 96 96 74.5097 96 48C96 21.4903 74.5097 0 48 0C21.4903 0 0 21.4903 0 48C0 74.5097 21.4903 96 48 96Z" fill="url(#paint0_linear_1554_11343)"/>
<path fill-rule="evenodd" clip-rule="evenodd" d="M47.8581 79.8746C38.5164 79.8675 30.9915 77.6259 25.7338 73.5996C20.413 69.5249 17.5903 63.7426 17.5903 57.1998C17.5903 50.8954 20.4068 46.3494 23.5936 43.2766C26.0911 40.8685 28.8471 39.3262 30.7661 38.4391C30.3322 37.1073 29.7907 35.3637 29.3063 33.5629C28.6582 31.1531 28.0223 28.3258 28.0223 26.254C28.0223 23.8017 28.557 21.3389 29.9986 19.4252C31.5217 17.4034 33.8146 16.3203 36.5731 16.3203C38.7289 16.3203 40.5593 17.1199 41.9922 18.4995C43.3619 19.8181 44.2735 21.5694 44.9029 23.3949C46.0089 26.6026 46.4396 30.6327 46.5604 34.6545H49.2026C49.3234 30.6327 49.754 26.6026 50.8601 23.3949C51.4895 21.5694 52.4011 19.8181 53.7708 18.4995C55.2037 17.1199 57.034 16.3203 59.1899 16.3203C61.9484 16.3203 64.2413 17.4034 65.7644 19.4252C67.206 21.3389 67.7407 23.8017 67.7407 26.254C67.7407 28.3258 67.1048 31.1531 66.4566 33.5629C65.9722 35.3637 65.4308 37.1073 64.9968 38.4391C66.9159 39.3262 69.6719 40.8685 72.1693 43.2766C75.3562 46.3494 78.1726 50.8954 78.1726 57.1998C78.1726 63.7426 75.35 69.5249 70.0292 73.5996C64.7715 77.6259 57.2466 79.8675 47.9049 79.8746H47.8581Z" fill="#633001"/>
<path d="M36.5732 18.6523C32.5329 18.6523 30.6731 21.6972 30.6731 25.9083C30.6731 29.2554 32.8341 35.9589 33.7207 38.5685C33.9201 39.1554 33.6067 39.7985 33.0353 40.0261C29.7972 41.3159 20.2412 46.0385 20.2412 56.8541C20.2412 68.2472 29.9522 76.8375 47.8602 76.8511C47.8673 76.8511 47.8744 76.8511 47.8816 76.8511C47.8887 76.8511 47.8958 76.8511 47.903 76.8511C65.8109 76.8375 75.522 68.2472 75.522 56.8541C75.522 46.0385 65.966 41.3159 62.7279 40.0261C62.1564 39.7985 61.8431 39.1554 62.0425 38.5685C62.9291 35.9589 65.09 29.2554 65.09 25.9083C65.09 21.6972 63.2302 18.6523 59.19 18.6523C53.3742 18.6523 51.9245 26.9746 51.8211 35.9065C51.8142 36.5028 51.337 36.9866 50.7467 36.9866H45.0165C44.4261 36.9866 43.949 36.5028 43.9421 35.9065C43.8387 26.9746 42.3889 18.6523 36.5732 18.6523Z" fill="#D1884F"/>
<path d="M47.903 73.2008C34.7451 73.2008 20.2639 66.0856 20.2412 56.875C20.2412 56.8894 20.2412 56.9038 20.2412 56.9181C20.2412 68.3204 29.9677 76.9152 47.903 76.9152C65.8382 76.9152 75.5647 68.3204 75.5647 56.9181C75.5647 56.9038 75.5647 56.8894 75.5647 56.875C75.542 66.0856 61.0609 73.2008 47.903 73.2008Z" fill="#FEDC90"/>
<path d="M40.5919 54.0457C40.5919 57.1554 39.1371 58.775 37.3426 58.775C35.548 58.775 34.0933 57.1554 34.0933 54.0457C34.0933 50.936 35.548 49.3164 37.3426 49.3164C39.1371 49.3164 40.5919 50.936 40.5919 54.0457Z" fill="#633001"/>
<path d="M61.712 54.0457C61.712 57.1554 60.2573 58.775 58.4627 58.775C56.6682 58.775 55.2134 57.1554 55.2134 54.0457C55.2134 50.936 56.6682 49.3164 58.4627 49.3164C60.2573 49.3164 61.712 50.936 61.712 54.0457Z" fill="#633001"/>
<defs>
<linearGradient id="paint0_linear_1554_11343" x1="48" y1="0" x2="48" y2="96" gradientUnits="userSpaceOnUse">
<stop stop-color="#53DEE9"/>
<stop offset="1" stop-color="#1FC7D4"/>
</linearGradient>
</defs>
</svg>
