<svg xmlns="http://www.w3.org/2000/svg" width="200" height="200" fill="none"><circle cx="100" cy="100" r="100" fill="#D9D9D9"/><circle cx="100" cy="100" r="100" fill="url(#prefix__paint0_linear_3268_1797)"/><circle cx="100" cy="100" r="100" fill="url(#prefix__paint1_linear_3268_1797)"/><path fill-rule="evenodd" clip-rule="evenodd" d="M141.514 48.687c.649.526.269 1.553-.567 1.553H59.054c-.836 0-1.216-1.027-.566-1.553C69.827 39.502 84.27 34 100 34c15.73 0 30.173 5.502 41.514 14.687zM74.327 117.97c-.472-.674-1.233-1.097-2.055-1.097h-34.53c-.791 0-1.368.751-1.148 1.511C44.555 145.89 69.93 166 100.001 166c30.072 0 55.445-20.11 63.406-47.616a1.185 1.185 0 00-1.147-1.511h-34.53c-.822 0-1.582.423-2.055 1.097-5.667 8.081-15.054 13.365-25.674 13.365s-20.007-5.284-25.674-13.365zM123.217 78.955a2.522 2.522 0 001.859.843h36.121c.818 0 1.399-.797 1.128-1.569a65.894 65.894 0 00-11.129-19.884 2.363 2.363 0 00-1.837-.864H50.641c-.71 0-1.387.313-1.837.864a65.89 65.89 0 00-11.129 19.884c-.27.772.311 1.569 1.129 1.569h36.121a2.52 2.52 0 001.859-.843c5.733-6.32 14.011-10.29 23.217-10.29 9.205 0 17.483 3.97 23.216 10.29zM131.066 109.646c-.614 0-1.051-.599-.885-1.19a31.37 31.37 0 001.155-8.462c0-4.126-.797-8.066-2.245-11.674-.246-.61.194-1.292.851-1.292h34.044c.431 0 .804.305.883.729a66.823 66.823 0 01.541 21.115.897.897 0 01-.891.774h-33.453zm-61.247-1.19c.166.591-.27 1.19-.884 1.19H35.48a.896.896 0 01-.89-.774 66.604 66.604 0 01-.592-8.877c0-4.181.389-8.272 1.133-12.238a.896.896 0 01.883-.729h34.043c.658 0 1.097.682.852 1.292a31.25 31.25 0 00-2.246 11.674c0 2.932.402 5.77 1.155 8.462z" fill="#fff"/><defs><linearGradient id="prefix__paint0_linear_3268_1797" x1="0" y1="0" x2="200" y2="0" gradientUnits="userSpaceOnUse"><stop stop-color="#AD00FF"/><stop offset=".519" stop-color="#5D00BA"/><stop offset="1" stop-color="#30F"/></linearGradient><linearGradient id="prefix__paint1_linear_3268_1797" x1="100" y1="0" x2="100" y2="200" gradientUnits="userSpaceOnUse"><stop stop-color="#C750FF"/><stop offset="1" stop-color="#5800E8"/></linearGradient></defs></svg>